<svg width="20" height="20" viewBox="0 0 20 20" fill="none" xmlns="http://www.w3.org/2000/svg">
<path d="M9.99961 0.160156C15.4255 0.160156 19.8396 4.57429 19.8396 10.0002C19.8396 15.426 15.4255 19.8402 9.99961 19.8402C4.57374 19.8402 0.159607 15.426 0.159607 10.0002C0.159607 4.57429 4.57374 0.160156 9.99961 0.160156ZM7.53961 14.2117C9.88242 14.2117 11.7887 12.3224 11.7887 10.0002C11.7887 9.50637 11.3879 9.10561 10.8942 9.10561H7.83302C7.33923 9.10561 6.93847 9.50637 6.93847 10.0002C6.93847 10.4939 7.33923 10.8947 7.83302 10.8947H9.82562C9.46333 11.7888 8.57504 12.4226 7.53961 12.4226C6.18348 12.4226 5.07961 11.3362 5.07961 10.0002C5.07961 8.66415 6.18348 7.57773 7.53961 7.57773C8.0647 7.57773 8.5652 7.7383 8.98788 8.04244C9.38953 8.33183 9.94817 8.23924 10.2362 7.83849C10.5252 7.43773 10.4335 6.87864 10.0327 6.5897C9.30365 6.0655 8.44176 5.78819 7.53961 5.78819C5.19679 5.78819 3.29052 7.67747 3.29052 9.99971C3.29052 12.3219 5.19679 14.2117 7.53961 14.2117ZM16.0378 10.8947C16.5316 10.8947 16.9323 10.4939 16.9323 10.0002C16.9323 9.50637 16.5316 9.10561 16.0378 9.10561H15.6133V8.45706C15.6133 7.96328 15.2126 7.56252 14.7188 7.56252C14.225 7.56252 13.8242 7.96328 13.8242 8.45706V9.10561H13.3542C12.8604 9.10561 12.4596 9.50637 12.4596 10.0002C12.4596 10.4939 12.8604 10.8947 13.3542 10.8947H13.8242V11.5432C13.8242 12.037 14.225 12.4378 14.7188 12.4378C15.2126 12.4378 15.6133 12.037 15.6133 11.5432V10.8947H16.0378Z" fill="#1A1A1A"/>
</svg>
