<svg width="20" height="20" viewBox="0 0 20 20" fill="none" xmlns="http://www.w3.org/2000/svg">
<path d="M9.9112 0.160156C0.867257 0.160156 0.159607 0.868298 0.159607 9.91175V10.0886C0.159607 19.132 0.867258 19.8402 9.9112 19.8402H10.088C19.132 19.8402 19.8396 19.132 19.8396 10.0886V10.0002C19.8396 0.87454 19.1252 0.160156 9.99961 0.160156H9.9112ZM15.9007 3.11216C16.4444 3.11068 16.8861 3.54961 16.8876 4.09327C16.8891 4.63693 16.4501 5.07868 15.9065 5.08016C15.3628 5.08163 14.9211 4.6427 14.9196 4.09904C14.9181 3.55538 15.3571 3.11363 15.9007 3.11216ZM9.98807 5.08016C12.7049 5.07376 14.9132 7.2718 14.9196 9.98862C14.926 12.7054 12.728 14.9138 10.0111 14.9202C7.29431 14.9266 5.086 12.7285 5.07961 10.0117C5.07321 7.29486 7.27125 5.08655 9.98807 5.08016ZM9.99288 7.04816C8.36239 7.05209 7.04367 8.37735 7.04761 10.0078C7.05154 11.6378 8.37634 12.9561 10.0063 12.9522C11.6368 12.9482 12.9555 11.6234 12.9516 9.99343C12.9477 8.36294 11.6229 7.04422 9.99288 7.04816Z" fill="#1A1A1A"/>
</svg>
