<svg width="20" height="20" viewBox="0 0 20 20" fill="none" xmlns="http://www.w3.org/2000/svg">
<path d="M17.4967 0.160156H2.50246C1.20921 0.160156 0.159607 1.20976 0.159607 2.50301V17.4973C0.159607 18.7906 1.20921 19.8402 2.50246 19.8402H17.4967C18.79 19.8402 19.8396 18.7906 19.8396 17.4973V2.50301C19.8396 1.20976 18.79 0.160156 17.4967 0.160156ZM6.25104 7.6573V16.5602H3.43961V7.6573H6.25104ZM3.43961 5.0661C3.43961 4.4101 4.00189 3.90873 4.84532 3.90873C5.68875 3.90873 6.21824 4.4101 6.25104 5.0661C6.25104 5.7221 5.72623 6.25158 4.84532 6.25158C4.00189 6.25158 3.43961 5.7221 3.43961 5.0661ZM16.5596 16.5602H13.7482C13.7482 16.5602 13.7482 12.2212 13.7482 11.8744C13.7482 10.9373 13.2796 10.0002 12.1082 9.98141H12.0707C10.9367 9.98141 10.4682 10.9467 10.4682 11.8744C10.4682 12.3008 10.4682 16.5602 10.4682 16.5602H7.65675V7.6573H10.4682V8.85684C10.4682 8.85684 11.3725 7.6573 13.1906 7.6573C15.0508 7.6573 16.5596 8.9365 16.5596 11.5277V16.5602Z" fill="#1A1A1A"/>
</svg>
