<svg width="21" height="21" viewBox="0 0 21 21" fill="none" xmlns="http://www.w3.org/2000/svg">
<path d="M4.2002 0.919922C2.3887 0.919922 0.920197 2.38842 0.920197 4.19992V17.3199C0.920197 19.1314 2.3887 20.5999 4.2002 20.5999H17.3202C19.1317 20.5999 20.6002 19.1314 20.6002 17.3199V4.19992C20.6002 2.38842 19.1317 0.919922 17.3202 0.919922H4.2002ZM5.17761 5.13706H8.89689L11.5381 8.89021L14.7431 5.13706H15.9145L12.0671 9.64157L16.8114 16.3828H13.093L10.0281 12.0284L6.30877 16.3828H5.13734L9.49908 11.277L5.17761 5.13706ZM6.97136 6.07421L13.5817 15.4456H15.0176L8.40727 6.07421H6.97136Z" fill="#1A1A1A"/>
</svg>
